# xmcd
#
# Track frame offsets:
#	150
#	17679
#	33718
#	50563
#	72753
#	89816
#	106458
#	125911
#	146113
#	163062
#	180055
#	197632
#	213708
#	228725
#
# Disc length: 3358 seconds
#
# Revision: 7
# Processed by: cddbd v1.5.2PL0 Copyright (c) Steve Scherf et al.
# Submitted via: EasyCDDAExtractor 15.3.0.1
#
DISCID=d60d1c0e
DTITLE=Juanes - MTV Unplugged [CD DVD Deluxe Edition)
DYEAR=2012
DGENRE=Latin
TTITLE0=Fijate Bien
TTITLE1=La Paga
TTITLE2=Nada Valgo Sin Tu Amor
TTITLE3=Es Por Ti
TTITLE4=Todo En Mi Vida Eres Tu
TTITLE5=A Dios Le Pido
TTITLE6=Hoy Me Voy (Featuring Paula Fernandes)
TTITLE7=Volverte A Ver
TTITLE8=La Camisa Negra
TTITLE9=Azul Sabina (Featuring Joaquin Sabina)
TTITLE10=Para Tu Amor
TTITLE11=La Señal
TTITLE12=Me Enamora
TTITLE13=Odio Por Amor
EXTD=
EXTT0=
EXTT1=
EXTT2=
EXTT3=
EXTT4=
EXTT5=
EXTT6=
EXTT7=
EXTT8=
EXTT9=
EXTT10=
EXTT11=
EXTT12=
EXTT13=
PLAYORDER=
